<?xml version="1.0" encoding="utf-8"?>
<!-- Generator: Adobe Illustrator 25.2.3, SVG Export Plug-In . SVG Version: 6.00 Build 0)  -->
<svg version="1.0" id="Layer_1" xmlns="http://www.w3.org/2000/svg" xmlns:xlink="http://www.w3.org/1999/xlink" x="0px" y="0px"
	 viewBox="0 0 96 96" enable-background="new 0 0 96 96" xml:space="preserve">
<g>
	<path d="M48,18c0,0,9.2,0,12.4,0.2c3.2,0.1,5.4,0.7,7.3,1.4c2,0.8,3.6,1.8,5.3,3.5c1.7,1.7,2.7,3.3,3.5,5.3
		c0.7,1.9,1.2,4.1,1.4,7.3C78,38.8,78,39.9,78,48s0,9.2-0.2,12.4c-0.1,3.2-0.7,5.4-1.4,7.3c-0.8,2-1.8,3.6-3.5,5.3
		c-1.7,1.7-3.3,2.7-5.3,3.5c-1.9,0.7-4.1,1.2-7.3,1.4C57.2,78,56.1,78,48,78v18c26.5,0,48-21.5,48-48S74.5,0,48,0V18z"/>
	<path d="M48,38c5.5,0,10,4.5,10,10c0,5.5-4.5,10-10,10V38z"/>
	<path d="M48,23.4c8,0,9,0,12.1,0.2c2.9,0.1,4.5,0.6,5.6,1c1.4,0.5,2.4,1.2,3.4,2.2c1,1,1.7,2,2.2,3.4c0.4,1.1,0.9,2.6,1,5.6
		C72.6,39,72.6,40,72.6,48s0,9-0.2,12.1c-0.1,2.9-0.6,4.5-1,5.6c-0.5,1.4-1.2,2.4-2.2,3.4c-1,1-2,1.7-3.4,2.2
		c-1.1,0.4-2.6,0.9-5.6,1C57,72.6,56,72.6,48,72.6v-9.2c8.5,0,15.4-6.9,15.4-15.4S56.5,32.6,48,32.6V23.4z M64,28.4
		c-2,0-3.6,1.6-3.6,3.6s1.6,3.6,3.6,3.6c2,0,3.6-1.6,3.6-3.6S66,28.4,64,28.4z"/>
	<path d="M48,32.6c-8.5,0-15.4,6.9-15.4,15.4S39.5,63.4,48,63.4v9.2c-8,0-9,0-12.1-0.2c-2.9-0.1-4.5-0.6-5.6-1
		c-1.4-0.5-2.4-1.2-3.4-2.2c-1-1-1.7-2-2.2-3.4c-0.4-1.1-0.9-2.6-1-5.6C23.4,57,23.4,56,23.4,48s0-9,0.2-12.1c0.1-2.9,0.6-4.5,1-5.6
		c0.5-1.4,1.2-2.4,2.2-3.4c1-1,2-1.7,3.4-2.2c1.1-0.4,2.6-0.9,5.6-1C39,23.4,40,23.4,48,23.4V32.6z"/>
	<path d="M48,18c0,0-9.2,0-12.4,0.2c-3.2,0.1-5.4,0.7-7.3,1.4c-2,0.8-3.6,1.8-5.3,3.5c-1.7,1.7-2.7,3.3-3.5,5.3
		c-0.7,1.9-1.2,4.1-1.4,7.3C18,38.8,18,39.9,18,48s0,9.2,0.2,12.4c0.1,3.2,0.7,5.4,1.4,7.3c0.8,2,1.8,3.6,3.5,5.3
		c1.7,1.7,3.3,2.7,5.3,3.5c1.9,0.7,4.1,1.2,7.3,1.4C38.8,78,39.9,78,48,78v18C21.5,96,0,74.5,0,48C0,21.5,21.5,0,48,0V18z"/>
	<path d="M48,58c-5.5,0-10-4.5-10-10c0-5.5,4.5-10,10-10V58z"/>
</g>
</svg>
