<?xml version="1.0" encoding="utf-8"?>
<!-- Generator: Adobe Illustrator 25.2.3, SVG Export Plug-In . SVG Version: 6.00 Build 0)  -->
<svg version="1.0" id="Layer_1" xmlns="http://www.w3.org/2000/svg" xmlns:xlink="http://www.w3.org/1999/xlink" x="0px" y="0px"
	 viewBox="0 0 96 96" enable-background="new 0 0 96 96" xml:space="preserve">
<path d="M76.5,24.4c-2.2,0.8-4.4,1.6-6.6,2.4c-0.7,0.3-1.3,0.1-1.8-0.4c-3.1-2.8-6.7-3.7-10.7-3c-6.7,1.2-11,7.3-10.1,14
	c0.1,0.8,0,1.2-1,1.1c-9.7-1-17.8-5-24.2-12.3c-0.2-0.2-0.4-0.4-0.8-0.7c-2.8,6.5-1.6,12,3.8,16.6c-2,0.2-3.6-0.7-5.4-1.3
	c0,1.9,0.4,3.6,1.1,5.2c1.7,3.7,4.6,6,8.5,7.1c0,0.1,0,0.3-0.1,0.4c-1.6,0.1-3.2,0.2-5.1,0.3c2.1,5.2,5.9,7.9,11.4,8.5
	c-5.2,4.1-11.1,5.7-17.6,5.4c1.2,0.8,2.3,1.5,3.5,2c6.6,3,13.5,4,20.7,2.9c7.6-1.1,14.2-4.4,19.6-9.9c7-7.2,10.4-16,10.5-26
	c0-0.8,0.3-1.4,0.9-1.9c1.2-1,2.3-2.1,3.4-3.2c0.6-0.6,1-1.3,1.6-2.1c-2.3,0.6-4.3,1.1-6.3,1.6c-0.1-0.1-0.1-0.2-0.2-0.4
	C73.9,29,75.6,27,76.5,24.4z M96,48c0,26.5-21.5,48-48,48S0,74.5,0,48S21.5,0,48,0S96,21.5,96,48z"/>
</svg>
