<?xml version="1.0" encoding="utf-8"?>
<!-- Generator: Adobe Illustrator 25.2.3, SVG Export Plug-In . SVG Version: 6.00 Build 0)  -->
<svg version="1.0" id="Layer_1" xmlns="http://www.w3.org/2000/svg" xmlns:xlink="http://www.w3.org/1999/xlink" x="0px" y="0px"
	 viewBox="0 0 96 96" enable-background="new 0 0 96 96" xml:space="preserve">
<path d="M48,0c26.5,0,48,21.5,48,48S74.5,96,48,96S0,74.5,0,48S21.5,0,48,0z M48,82.7c19.1,0,34.7-15.6,34.7-34.7S67.1,13.3,48,13.3
	S13.3,28.9,13.3,48S28.9,82.7,48,82.7z M28,45.7c0.3-4.5,1.4-8.4,3.1-11.7c1.8,0.1,3.8,0.2,6,0.3c-0.7,3.4-1.2,7.3-1.3,11.6h-7.7h0
	C28,45.8,28,45.8,28,45.7z M68,45.8L68,45.8h-7.8c-0.1-4.3-0.6-8.2-1.3-11.6c2.1-0.1,4.1-0.2,6-0.3c1.6,3.3,2.8,7.2,3.1,11.7
	C68,45.8,68,45.8,68,45.8z M62.4,29.8c-1.4,0.1-3,0.1-4.6,0.2c-0.9-3.1-2-5.8-3.1-8C57.3,23.9,60,26.4,62.4,29.8z M71.8,29.2
	c-3.4-4.3-7.9-7.6-13.2-9.6c0,0-0.1,0-0.1,0c0,0,0.1,0,0.1,0.1c3,2.5,6.1,5.7,8.7,9.9C68.9,29.4,70.4,29.3,71.8,29.2z M72.3,45.7
	c-0.3-4.5-1.3-8.5-2.8-12c1.9-0.1,3.6-0.3,5.1-0.4c2.1,3.8,3.4,8,3.7,12.6h-6V45.7z M41.2,22c-1.1,2.2-2.1,4.9-3.1,8
	c-1.6-0.1-3.1-0.1-4.6-0.2C36,26.4,38.7,23.9,41.2,22z M48,19C48,19,48,19,48,19c1.5,2.1,3.6,5.8,5.3,11.1c-1.7,0-3.5,0-5.3,0
	s-3.6,0-5.3,0C44.4,24.7,46.5,21.1,48,19C48,19,48,19,48,19z M40.1,45.8c0.1-4.3,0.7-8.1,1.4-11.4c2,0,4.2,0.1,6.5,0.1
	s4.4,0,6.5-0.1c0.7,3.3,1.3,7.1,1.4,11.4c0,0-7.9,0-7.9,0C48,45.8,40.1,45.8,40.1,45.8z M24.2,29.2c3.4-4.3,8-7.7,13.2-9.6
	c-3,2.5-6.2,5.8-8.8,10C27.1,29.4,25.6,29.3,24.2,29.2z M23.7,45.7c0.3-4.5,1.3-8.5,2.8-12c-1.9-0.1-3.6-0.3-5.1-0.4
	c-2.1,3.8-3.4,8-3.7,12.6h6L23.7,45.7z M68,50.3c-0.3,4.5-1.4,8.4-3.1,11.7c-1.8-0.1-3.8-0.2-6-0.3c0.7-3.4,1.2-7.3,1.3-11.6h7.7h0
	C68,50.2,68,50.2,68,50.3z M28,50.2L28,50.2h7.8c0.1,4.3,0.6,8.2,1.3,11.6c-2.1,0.1-4.1,0.2-6,0.3c-1.6-3.3-2.8-7.2-3.1-11.7
	C28,50.2,28,50.2,28,50.2z M33.6,66.2c1.4-0.1,3-0.1,4.6-0.2c0.9,3.1,2,5.8,3.1,8C38.7,72.1,36,69.6,33.6,66.2z M24.2,66.8
	c3.4,4.3,8,7.7,13.2,9.6c-3-2.5-6.2-5.8-8.8-10C27.1,66.6,25.6,66.7,24.2,66.8z M23.7,50.3c0.3,4.5,1.3,8.5,2.8,12
	c-1.9,0.1-3.6,0.3-5.1,0.4c-2.1-3.8-3.4-8-3.7-12.6h6L23.7,50.3z M54.8,74c1.1-2.2,2.1-4.9,3.1-8c1.6,0.1,3.1,0.1,4.6,0.2
	C60,69.6,57.3,72.1,54.8,74z M48,77C48,77,48,77,48,77c-1.5-2.1-3.6-5.8-5.3-11.1c1.7,0,3.5,0,5.3,0s3.6,0,5.3,0
	C51.6,71.3,49.5,74.9,48,77C48,77,48,77,48,77z M55.9,50.2c-0.1,4.3-0.7,8.1-1.4,11.4c-2,0-4.2-0.1-6.5-0.1s-4.4,0-6.5,0.1
	c-0.7-3.3-1.3-7.1-1.4-11.4c0,0,7.9,0,7.9,0C48,50.2,55.9,50.2,55.9,50.2z M71.8,66.8c-3.4,4.3-8,7.7-13.2,9.6c3-2.5,6.2-5.8,8.8-10
	C68.9,66.6,70.4,66.7,71.8,66.8z M72.3,50.3c-0.3,4.5-1.3,8.5-2.8,12c1.9,0.1,3.6,0.3,5.1,0.4c2.1-3.8,3.4-8,3.7-12.6h-6V50.3z"/>
</svg>
