<?xml version="1.0" encoding="utf-8"?>
<!-- Generator: Adobe Illustrator 24.1.2, SVG Export Plug-In . SVG Version: 6.00 Build 0)  -->
<svg version="1.1" id="Layer_1" xmlns="http://www.w3.org/2000/svg" xmlns:xlink="http://www.w3.org/1999/xlink" x="0px" y="0px"
	 viewBox="0 0 69.3 33.2" style="enable-background:new 0 0 69.3 33.2;" xml:space="preserve">
<style type="text/css">
	.st0{fill:#010101;}
	.st1{enable-background:new    ;}
</style>
<g id="Layer_2_1_">
	<g id="Layer_1-2">
		<path class="st0" d="M51.8,0.2c8.4-0.6,17.3,0.1,17.6,11.4c0.5,11.8-8.2,12-17.6,11.4V0.2z"/>
		<path class="st0" d="M0,0.2h11.1c5.7-0.4,8.3,10,1.6,10.6c6.2-0.1,7.4,12.5,0,12.2H0"/>
		<polygon class="st0" points="46,23.1 21.5,23.1 33.8,0.2 		"/>
		<g class="st1">
			<path class="st0" d="M6.1,28.4c0.5,0.1,0.6,0.5,0.6,0.9v0.9c0,0.6-0.4,1.1-1.3,1.1H4.1v-5.5h1.3c0.8,0,1.2,0.4,1.2,1.1v0.7
				C6.7,27.9,6.5,28.4,6.1,28.4z M4.7,28.2h0.8c0.4,0,0.7-0.2,0.7-0.6V27c0-0.5-0.2-0.7-0.7-0.7H4.7V28.2z M5.5,28.7H4.7v2.1h0.8
				c0.5,0,0.7-0.2,0.7-0.7v-0.8C6.1,28.9,5.9,28.7,5.5,28.7z"/>
			<path class="st0" d="M9.7,31.3H7.6v-5.5h0.6v5h1.6V31.3z"/>
			<path class="st0" d="M12.2,29.9h-1.3l-0.3,1.4H10l1.2-5.5h0.7l1.2,5.5h-0.6L12.2,29.9z M12.1,29.4l-0.6-2.9l-0.6,2.9H12.1z"/>
			<path class="st0" d="M16.2,30.2c0,0.8-0.5,1.2-1.3,1.2h0c-0.8,0-1.3-0.4-1.3-1.2v-3.3c0-0.8,0.5-1.2,1.3-1.2h0
				c0.8,0,1.3,0.4,1.3,1.2v1h-0.6V27c0-0.6-0.2-0.8-0.7-0.8s-0.7,0.2-0.7,0.8v3c0,0.6,0.2,0.8,0.7,0.8s0.7-0.2,0.7-0.8v-1h0.6V30.2z
				"/>
			<path class="st0" d="M19.3,31.3l-1-2.8l-0.6,1.1v1.8h-0.6v-5.5h0.6v2.8l1.5-2.8h0.6l-1.2,2.1l1.3,3.4H19.3z"/>
			<path class="st0" d="M23.4,29.9h-1.3l-0.3,1.4h-0.6l1.2-5.5h0.7l1.2,5.5h-0.6L23.4,29.9z M23.3,29.4l-0.6-2.9l-0.6,2.9H23.3z"/>
			<path class="st0" d="M27.1,31.3L26.3,29h0h-0.8v2.3h-0.6v-5.5h1.3c0.8,0,1.3,0.4,1.3,1.2v0.9c0,0.6-0.2,0.9-0.7,1.1l0.9,2.4H27.1
				z M25.5,28.5h0.7c0.5,0,0.8-0.2,0.8-0.8v-0.6c0-0.6-0.2-0.8-0.8-0.8h-0.7V28.5z"/>
			<path class="st0" d="M30.6,26.3h-1v5h-0.6v-5h-1v-0.5h2.6V26.3z"/>
			<path class="st0" d="M31.3,31.3v-5.5h0.6v5.5H31.3z"/>
			<path class="st0" d="M34.7,27.7V27c0-0.5-0.2-0.8-0.7-0.8s-0.7,0.2-0.7,0.8v0.4c0,0.4,0.1,0.5,0.5,0.7l0.8,0.4
				c0.4,0.2,0.7,0.5,0.7,1v0.7c0,0.8-0.4,1.1-1.3,1.1h0c-0.8,0-1.3-0.3-1.3-1.1v-0.9h0.6v0.8c0,0.5,0.2,0.8,0.7,0.8s0.7-0.3,0.7-0.8
				v-0.4c0-0.4-0.1-0.5-0.5-0.7l-0.8-0.4c-0.5-0.3-0.7-0.5-0.7-1v-0.7c0-0.8,0.5-1.1,1.3-1.1h0c0.8,0,1.3,0.4,1.3,1.1v0.9H34.7z"/>
			<path class="st0" d="M38.3,26.3h-1v5h-0.6v-5h-1v-0.5h2.6V26.3z"/>
			<path class="st0" d="M42.7,26.9v3.2c0,0.8-0.5,1.2-1.3,1.2h-1.3v-5.5h1.3C42.3,25.8,42.7,26.2,42.7,26.9z M41.4,26.3h-0.7v4.5
				h0.7c0.5,0,0.8-0.2,0.8-0.8v-2.9C42.2,26.5,41.9,26.3,41.4,26.3z"/>
		</g>
		<g class="st1">
			<path class="st0" d="M45.2,29.9h-1.3l-0.3,1.4H43l1.2-5.5h0.7l1.2,5.5h-0.6L45.2,29.9z M45.1,29.4l-0.6-2.9l-0.6,2.9H45.1z"/>
			<path class="st0" d="M48.5,26.3h-1v5h-0.6v-5h-1v-0.5h2.6V26.3z"/>
		</g>
		<g class="st1">
			<path class="st0" d="M50.5,29.9h-1.3l-0.3,1.4h-0.6l1.2-5.5h0.7l1.2,5.5h-0.6L50.5,29.9z M50.4,29.4l-0.6-2.9l-0.6,2.9H50.4z"/>
			<path class="st0" d="M53.9,28.4c0.5,0.1,0.6,0.5,0.6,0.9v0.9c0,0.6-0.4,1.1-1.3,1.1H52v-5.5h1.3c0.8,0,1.2,0.4,1.2,1.1v0.7
				C54.5,27.9,54.4,28.4,53.9,28.4z M52.5,28.2h0.8c0.4,0,0.7-0.2,0.7-0.6V27c0-0.5-0.2-0.7-0.7-0.7h-0.8V28.2z M53.3,28.7h-0.8v2.1
				h0.8c0.5,0,0.7-0.2,0.7-0.7v-0.8C54,28.9,53.8,28.7,53.3,28.7z"/>
			<path class="st0" d="M57.2,29.9h-1.3l-0.3,1.4H55l1.2-5.5h0.7l1.2,5.5h-0.6L57.2,29.9z M57.1,29.4l-0.6-2.9L56,29.4H57.1z"/>
		</g>
		<g class="st1">
			<path class="st0" d="M60.5,27.7V27c0-0.5-0.2-0.8-0.7-0.8s-0.7,0.2-0.7,0.8v0.4c0,0.4,0.1,0.5,0.5,0.7l0.8,0.4
				c0.4,0.2,0.7,0.5,0.7,1v0.7c0,0.8-0.4,1.1-1.3,1.1h0c-0.8,0-1.3-0.3-1.3-1.1v-0.9h0.6v0.8c0,0.5,0.2,0.8,0.7,0.8s0.7-0.3,0.7-0.8
				v-0.4c0-0.4-0.1-0.5-0.5-0.7l-0.8-0.4c-0.5-0.3-0.7-0.5-0.7-1v-0.7c0-0.8,0.5-1.1,1.3-1.1h0c0.8,0,1.3,0.4,1.3,1.1v0.9H60.5z"/>
			<path class="st0" d="M61.9,31.3v-5.5h2.2v0.5h-1.7v2h1.4v0.5h-1.4v2h1.7v0.5H61.9z"/>
		</g>
	</g>
</g>
</svg>
